<?xml version="1.0" encoding="utf-8"?>
<!-- Generator: Adobe Illustrator 22.0.0, SVG Export Plug-In . SVG Version: 6.00 Build 0)  -->
<svg version="1.1" id="Calque_1" xmlns="http://www.w3.org/2000/svg" xmlns:xlink="http://www.w3.org/1999/xlink" x="0px" y="0px"
	 viewBox="0 0 669 891" style="enable-background:new 0 0 669 891;" xml:space="preserve">
<style type="text/css">
	.st0{fill:#08B4A5;}
	.st1{fill:#8BC544;}
	.st2{fill:#09B4A5;}
	.st3{fill:#0BB4A5;}
	.st4{fill:#09B4A5;stroke:#01B3A5;stroke-width:5;stroke-miterlimit:10;}
	.st5{fill:#08B4A5;stroke:#01B3A5;stroke-width:5;stroke-miterlimit:10;}
	.st6{fill:#8BC544;stroke:#8BC545;stroke-width:3;stroke-miterlimit:10;}
</style>
<g>
	<g>
		<path class="st0" d="M400.8,245.1c0-40.8,0.1-81.6,0-122.3c-0.2-37.3-32.9-67.6-70-65.2c-34.6,2.3-61.8,30.7-62.2,65.4
			c-0.3,21.7-0.2,43.3,0,65c0,4.4-1.1,5.9-5.6,5.7c-12.3-0.3-24.6-0.2-37-0.1c-3.1,0-5.4-0.3-5.4-4.2c0.6-28.8-2.7-57.8,2-86.5
			c8.3-50.5,51.8-89.4,103-93c57.7-4.1,107.6,32.8,120.5,89c1.9,8.3,2.8,16.7,2.8,25.2c0.1,80.1,0,160.1,0,240.2
			c0,1.1-0.1,2.1,0,3.2c0.5,5.3-1.3,7.4-7.1,7.2c-11.4-0.5-22.9-0.4-34.4,0c-5.2,0.2-6.8-1.2-6.8-6.6
			C400.9,327.1,400.8,286.1,400.8,245.1z"/>
		<path class="st1" d="M241,220.5c41.6,0,83.2,0.1,124.9-0.1c4.8,0,6.1,1.2,5.9,5.9c-0.4,12.1-0.4,24.2,0,36.3
			c0.2,5.2-1.6,6.2-6.4,6.2c-80.3-0.1-160.5-0.1-240.8-0.1c-35.6,0-63.2,25-66.9,60.3c-3.7,35,23.8,68.6,58.8,71.2
			c23.1,1.7,46.3,0.6,69.4,0.5c5.9,0,7.6,1.6,7.3,7.4c-0.5,11.9-0.3,23.8-0.1,35.7c0.1,3.9-1.1,5.1-5,5.1
			c-22.9-0.2-45.9,0.4-68.8-0.2C55.4,446.9,6.8,393.3,9.5,328.1c2.5-59.2,53.1-107.2,113.6-107.5C162.4,220.4,201.7,220.5,241,220.5
			z"/>
		<path class="st0" d="M220.4,427.2c0-40.8,0.1-81.5-0.1-122.3c0-5.2,1.2-6.9,6.6-6.8c11.7,0.4,23.4,0.4,35,0
			c5.4-0.2,6.6,1.5,6.6,6.7c-0.2,66.9-0.2,133.8,0,200.7c0,17.2-1.4,34.4,1.1,51.5c4.7,31.4,33.4,55.4,65.9,55
			c32.3-0.4,60.6-24.7,64.2-56.1c2.7-22.8,0.7-45.8,0.9-68.7c0-6.1,1-8.5,7.8-8.1c11.6,0.7,23.4,0.3,35,0.1c4-0.1,5.6,0.8,5.5,5.2
			c-0.5,23.8,0.6,47.6-0.7,71.3c-2.7,48.3-42.8,93.4-90.5,102.1c-39.5,7.2-74.2-2.6-103.1-30.4c-22.2-21.4-33.8-48.2-34.1-79.1
			C220.1,507.9,220.4,467.6,220.4,427.2z"/>
		<path class="st1" d="M428.8,448.9c-41.6,0-83.3-0.1-124.9,0.1c-4.9,0-6.5-1.2-6.3-6.3c0.4-11.9,0.4-23.8,0-35.7
			c-0.2-5.2,1.6-6.2,6.4-6.2c80.1,0.1,160.1,0.1,240.2,0.1c33.3,0,59.7-21.5,66.5-53.7c8-38.1-21.6-76.8-60.6-78.2
			c-22.5-0.8-45-0.4-67.5-0.1c-5,0.1-6.5-1.2-6.4-6.3c0.4-12.5,0.1-25.1,0.1-37.6c0-2.5-0.1-4.6,3.5-4.5c26.9,0.7,54-1.7,80.8,1.3
			c49.5,5.4,91.1,46.5,97.8,95.6c8.4,61.9-29.5,116.3-90.4,129.3c-7.7,1.7-15.5,2.2-23.4,2.2C506.1,448.8,467.4,448.9,428.8,448.9z"
			/>
		<path class="st1" d="M524.6,176.6c-34-4.9-56.2,10.7-63.6,44.7c-0.3,1.5-0.3,3.4-2.1,3.4c-2.6,0-2.1-2.3-1.9-3.8
			c1.4-13.1,6.4-25,12.7-36.3c7.8-14,17.2-26.9,31.6-34.9c16-9,32.9-6.5,49.5-2.6c16.1,3.8,31.9,8.8,48.8,7.3c4.2-0.4,4.3,2,2.3,4.7
			c-8.5,11.8-15.8,24.7-26.7,34.7c-16.6,15.2-35.8,21.2-58.1,16.6c-11.8-2.4-23.4-5.8-35.6-6.3c-5.6-0.2-4.3-3.8-2.6-6.6
			c4.4-7,11.1-11.6,18.4-15.1C506,178.1,515.3,177.9,524.6,176.6z"/>
		<path class="st1" d="M514.4,129.5c2.9,3.3,5.8,6.5,9.3,10.4c-10.1,0.9-19.1,3.1-26.9,8.4c-2.9,2-4.7,0.2-6.6-1.5
			c-8.3-7.7-11.8-17.9-13.9-28.6c-2.6-13,0.4-25.8,1.3-38.6c0.3-3.4,2.1-4.1,4.5-1.4c8.7,9.8,20.6,14.7,31.9,20.3
			c17.3,8.6,30.5,21.2,37.5,39.6c1.6,4.2,1.9,6.5-3.8,4.8c-2.8-0.8-5.8-1.1-8.8-1.3c-6.2-0.5-11.9-1.5-16-7.3
			C521.1,131.7,518.1,129.8,514.4,129.5z"/>
	</g>
	<path class="st0" d="M311,769c0-6.7,0.3-13.5-0.1-20.2c-1.1-17.4,13.7-26.7,26-26.7c6.7,0,12.9,1.5,18.2,5.8c1.8,1.5,2.8,1.3,4.6,0
		c11.6-8.7,28.1-7.3,37.8,3.1c3.4,3.7,5.6,8.1,5.8,13.2c0.7,16.4,0.5,32.9,0.1,49.3c-0.1,4.8-3,7.6-7.2,7.5c-4.3-0.1-7-3.1-7-8.1
		c0-14.8-0.1-29.7,0-44.5c0-5.1-1.8-9.2-6.4-11.5c-4.5-2.3-9-1.9-13.3,0.8c-3.5,2.2-4.9,5.5-4.9,9.6c0.1,13.6,0,27.2,0,40.9
		c0,2.1-0.1,4.2-0.2,6.2c-0.3,4-3.4,6.8-7.4,6.6c-3.9-0.1-6.8-3-6.8-7.2c-0.1-15.3-0.1-30.7,0-46c0-5.3-1.9-9.1-6.7-11.2
		c-5.1-2.1-10.1-1.8-14.5,1.9c-2.8,2.4-3.8,5.5-3.8,9.2c0,15.3,0,30.7,0,46c0,3-1.2,5.2-3.9,6.5c-2.7,1.2-5.3,0.9-7.7-0.8
		c-2.1-1.5-2.7-3.6-2.7-6.1C311.1,785.2,311,777.1,311,769z"/>
	<path class="st0" d="M595.9,761.2c0-10.4,0-20.9,0-31.3c0-5.2,2.4-7.7,7.6-7.7c14.7,0,29.4,0,44.2,0c4.8,0,7.4,2.6,7.4,6.8
		c0,3.9-2.8,6.5-7.3,6.5c-11.3,0.1-22.6,0.1-33.9-0.1c-3.2-0.1-4,0.9-3.8,3.9c0.3,3.9,0.2,7.9,0,11.8c-0.1,2.3,0.7,3,2.9,2.9
		c7.5-0.1,15-0.1,22.4,0c5,0,8.1,2.5,8.2,6.5c0.1,4.2-3,6.7-8.3,6.7c-7.4,0-14.7,0.1-22.1,0c-2.3,0-3.3,0.5-3.2,3
		c0.2,4.7,0.2,9.3,0,14c-0.1,2.5,0.8,3.1,3.2,3.1c10.3-0.1,20.6-0.1,30.9,0c2,0,3.9,0.1,5.9,0.5c2.9,0.6,4.7,2.5,5,5.6
		c0.3,3.2-1,5.5-3.9,6.8c-1.5,0.7-3.1,0.8-4.7,0.8c-13.9,0-27.7,0-41.6,0c-6.5,0-8.9-2.3-8.9-8.8
		C595.9,781.9,595.9,771.6,595.9,761.2z"/>
	<path class="st2" d="M81.4,761.4c0-10.5,0-21.1,0-31.6c0-4.9,2.5-7.6,6.9-7.7c4.5-0.1,7.2,2.8,7.2,7.8c0,8.2,0.1,16.4,0,24.6
		c0,2.5,0.5,3.4,3.2,3.4c10.2-0.2,20.4-0.2,30.5,0c2.7,0,3.2-0.9,3.2-3.4c-0.1-8.2-0.1-16.4,0-24.6c0-4.8,2.6-7.6,6.9-7.7
		c4.5-0.1,7.2,2.3,7.3,7.3c0.2,21.5,0.2,42.9,0.2,64.4c0,4.4-3.5,7.4-7.7,7.2c-4.1-0.2-6.7-3.2-6.7-7.7c0-6.4-0.1-12.8,0-19.1
		c0-2.3-0.5-3.2-3-3.2c-10.3,0.1-20.6,0.1-30.9,0c-2.5,0-3.1,0.9-3,3.2c0.1,6.5,0.1,13,0,19.5c0,4.3-2.9,7.3-7,7.3
		c-4.2,0-7-2.9-7-7.2C81.4,782.9,81.4,772.1,81.4,761.4z"/>
	<path class="st0" d="M494,761.4c0-4.7-0.6-9.4,0.1-13.9c2.4-15.1,16.2-25.6,32.7-25.4c10.7,0.1,19.6,4,26.4,12.3
		c3.4,4.1,3.3,8.5,0,11c-3.3,2.5-8.1,1.5-11.2-2.4c-7.7-9.6-21.8-10.2-30-1.3c-2.5,2.7-3.9,5.9-3.8,9.6c0.1,6.7,0.1,13.5,0,20.2
		c0,4.6,2,8.3,5.4,11.2c8.4,7.2,21.6,5.8,28.5-2.9c3.3-4.1,7.6-4.9,11.2-2.1c3.2,2.5,3.4,6.7,0,10.7c-7.9,9.5-18.3,13.3-30.4,12.1
		c-12.6-1.3-22.2-7.2-27.4-19.2C492.8,774.9,494,768.1,494,761.4z"/>
	<path class="st3" d="M582,761.3c0,10.5,0,21.1,0,31.6c0,4.8-2.5,7.7-6.7,8c-4.1,0.3-7.2-2.6-7.6-7.2c-0.2-2.4-0.1-4.9-0.1-7.3
		c0.1-18.7,0.2-37.5,0.1-56.2c0-5.9,3.4-8.1,7.4-8.1c3.8,0,7.3,2.5,7,8.7C581.8,741,582,751.1,582,761.3z"/>
	<path class="st0" d="M275.1,723.2c-10.4-2.2-21-0.9-31.6-0.8c-3.4,0-5.4,2.7-5.7,6.2c-0.1,1.8,0,3.7,0,5.5c0,20,0,40,0.1,60
		c0,4.7,2.8,7.4,6.9,7.4c4.7,0,7.3-2.7,7.4-7.7c0.1-3.3,0-6.5,0-9.8c1.5,0,2.3,0.8,3.2,1.4c7.9,4.9,15.8,9.8,23.8,14.6
		c3.8,2.3,8.5,1.3,10.5-1.9c2.1-3.4,0.9-7.1-3.4-9.8c-4.1-2.6-8.2-5.2-12.8-8c2-0.6,3.3-0.9,4.6-1.3c12.3-4.1,20.9-14.6,21.3-25.9
		C299.9,738.7,290.1,726.3,275.1,723.2z M284.3,756.2c-2.8,7-8.6,10.2-15.7,10.9c-4.6,0.4-9.3,0-14,0.1c-2.1,0.1-2.4-0.9-2.4-2.6
		c0.1-4.5,0-9.1,0-13.6c0-4.4,0-8.8,0-13.2c0-1.1-0.1-2.3,1.6-2.2c6.1,0.3,12.3-0.8,18.3,0.7C281.8,738.7,287.5,748,284.3,756.2z"/>
	<path class="st0" d="M225,751c0-4.5-1.2-8.7-3.4-12.6c-6.9-12.2-22-18.7-36.3-15.8c-14.6,3-27,14.8-25.8,31.7
		c0.4,5.7,0.1,11.5,0.1,17.3c0,7.4,0,14.7,0,22.1c0,3.2,1.4,5.4,4.3,6.6c4.5,1.9,9.3-0.7,9.8-5.6c0.5-4.7,0.3-9.5,0.3-14.3
		c0-2,0.5-2.8,2.7-2.8c10.4,0.1,20.8,0.1,31.3,0c2.1,0,2.8,0.8,2.7,2.8c-0.1,4.2-0.1,8.3,0,12.5c0.1,4.9,2.9,8,7.2,8
		c4.3,0,7.2-3.1,7.2-8C225,779,225,765,225,751z M210.5,757.8c0.1,6.6,0,6.6-6.5,6.6c-3.9,0-7.8,0-11.7,0c-5.3,0-10.5-0.1-15.8,0
		c-1.9,0-2.7-0.5-2.6-2.5c0.1-4,0-8.1,0.1-12.1c0.1-3.9,2.3-6.9,5-9.4c9.1-8.2,24.5-5.7,30,4.8C211.2,749.2,210.5,753.5,210.5,757.8
		z"/>
	<path class="st0" d="M481.8,751.6c0-5.8-1.6-11.1-5.1-15.8c-8.3-11.1-19.7-15-33-13.3c-16.4,2.1-28.2,15.3-27.4,30.2
		c0.3,6.2,0.1,12.5,0.1,18.8c0,7.4,0,14.7,0,22.1c0,4.5,2.7,7.4,6.8,7.5c4.2,0.1,7.3-2.9,7.3-7.4c0.1-4.3,0.1-8.6,0-12.9
		c-0.1-2.1,0.3-3.1,2.8-3.1c10.4,0.1,20.8,0.1,31.3,0c2.4,0,2.9,0.9,2.8,3c-0.1,4-0.1,8.1,0,12.1c0,4.9,3,8.2,7.4,8.2
		c4.1,0,7.1-3.4,7.1-8.2C481.8,779,481.9,765.3,481.8,751.6z M466.7,763.6c-2.2,2.3-6.7,0.6-10.2,0.7c-2.6,0.1-5.1,0-7.7,0
		c-5.3,0-10.5-0.1-15.8,0c-1.9,0-2.6-0.6-2.5-2.5c0.1-3.7-0.1-7.3,0.1-11c0.5-10.1,11.8-17.5,22.7-15c9.2,2.1,14.1,8.2,14,17.8
		C467.3,757.1,468.7,761.5,466.7,763.6z"/>
	<path class="st0" d="M45.8,723.1c-9.3-1.7-18.8-0.5-28.3-0.7c-5.8-0.1-8.2,2.4-8.2,8.3c0,10.3,0,20.6,0,30.9c0,10.5,0,21.1,0,31.6
		c0,4.6,2.6,7.3,6.9,7.4c4.6,0.2,7.2-2.2,7.5-7.1c0.2-2.7,0.3-5.4,0-8.1c-0.3-3.4,0.7-4.8,4.4-4.6c4.9,0.2,9.8,0,14.7-0.4
		c15.6-1.2,28.4-14.3,28.4-29C71.1,738,60.3,725.8,45.8,723.1z M56.6,753.2c-0.7,6.9-7.9,13.4-15.8,14c-4.9,0.3-9.8,0-14.7,0.2
		c-2.1,0.1-2.4-1.1-2.3-2.7c0.1-4.5,0-9.1,0-13.6c0-4.2,0.1-8.3,0-12.5c-0.1-2.1,0.4-3.2,2.8-3c5.6,0.3,11.3-0.6,16.8,0.8
		C51.9,738.4,57.4,745.5,56.6,753.2z"/>
	<path class="st4" d="M253.6,864.6c0-3.3,0.1-6.5,0-9.8c-0.4-8.4,5.3-14.7,12.7-16.8c8.8-2.6,18.5,1.5,22.2,9.2
		c0.9,1.9,1.4,4,1.4,6.1c0,7.7,0,15.5,0,23.2c0,2.7-1.4,4.3-3.8,4.4c-2.4,0.1-4.1-1.5-4.1-4.2c-0.1-7.5-0.3-15,0-22.4
		c0.2-5.7-5.2-9.6-10.2-9.6c-5.3,0-10.4,4.1-10.2,9.6c0.3,7.4,0.1,14.8,0.1,22.2c0,3.3-2.4,5.2-5.4,4.2c-1.8-0.6-2.7-1.9-2.6-3.9
		C253.6,872.8,253.6,868.7,253.6,864.6z"/>
	<path class="st5" d="M559.9,864.6c0-3.1,0-6.2,0-9.4c0-9.4,5.2-15.7,14.4-17.6c8.3-1.7,17,2.5,20.5,9.8c1,2.1,1.4,4.4,1.4,6.7
		c0.1,7.4,0,14.8,0,22.2c0,2-0.6,3.7-2.8,4.5c-2.8,0.9-5.2-0.9-5.2-3.9c0-7.4,0-14.8,0-22.2c0-4.9-2.5-8.2-7.3-9.5
		c-4.5-1.3-9.6,0.5-11.9,4.1c-1,1.6-1.3,3.3-1.3,5.2c0,7.5,0,14.9,0,22.4c0,3.1-2.6,4.8-5.5,3.7c-1.5-0.6-2.3-1.6-2.4-3.2
		c0-4.3,0-8.6,0-12.8C560,864.6,560,864.6,559.9,864.6z"/>
	<path class="st4" d="M640.6,861.7c0,4.9,0,9.8,0,14.7c0,2.8-1.4,4.5-3.8,4.6c-2.4,0.1-4.1-1.5-4.1-4.5c-0.1-9.8-0.1-19.6,0-29.3
		c0-1.9-0.4-2.6-2.4-2.5c-2.6,0.2-5.2,0.1-7.7,0c-2.5,0-4.1-1.4-4.3-3.4c-0.2-2.2,1.2-3.8,3.9-4c3.2-0.2,6.5-0.1,9.8-0.1
		c5.8,0,11.5,0,17.3,0c0.8,0,1.6,0.1,2.4,0.2c2.3,0.4,3.5,1.8,3.4,3.8c-0.1,2-1.6,3.4-3.8,3.5c-3,0.1-6,0.1-9,0
		c-1.4,0-1.7,0.4-1.7,1.7C640.7,851.6,640.6,856.6,640.6,861.7z"/>
	<path class="st5" d="M524.1,859.2c0-5.8,0-11.7,0-17.5c0-2.8,1.5-4.4,4-4.4c2.5,0,3.9,1.6,3.9,4.4c0,11.6,0,23.2,0,34.8
		c0,2.7-1.5,4.5-3.9,4.5c-2,0-4.1-1.4-4.1-4.5C524.3,870.7,524.1,864.9,524.1,859.2z"/>
	<path class="st5" d="M150.3,838c-5.4-1.2-11-0.4-16.4-0.5c-3-0.1-4.3,1.4-4.3,4.4c0,7.1,0,14.1,0,21.2c0,4.9,0,9.8,0.1,14.7
		c0.1,2.3,1.8,3.8,4,3.7c2.2-0.1,3.8-1.7,3.8-3.9c0-1.9,0-3.8,0-6.1c1.9,1.1,3.4,2.1,5,3c3.3,2.1,6.7,4.1,10,6.2
		c1.6,1,3.2,0.9,4.8,0c1.3-0.8,1.6-2.1,1.5-3.5c-0.1-1.4-1.1-2.1-2.1-2.8c-2.4-1.5-4.7-3-7.3-4.5c1.5-0.5,2.6-0.7,3.7-1.2
		c5.9-2.6,10-6.8,10.6-13.5C164.3,846.8,158.7,839.8,150.3,838z M152.5,860c-2.9,2.3-6.3,2.6-9.9,2.3c-1.7-0.2-3.8,0.8-4.9-0.4
		c-1-1-0.3-3.1-0.3-4.7c0-3.6,0-7.2,0-10.8c0-1.2,0.2-1.7,1.6-1.7c2.4,0.1,4.8,0,7.1,0c3.4,0.1,6.1,1.6,8.1,4.3
		C156.9,852.6,156,857.3,152.5,860z"/>
	<path class="st4" d="M353.2,852.1c-0.2-7.3-4.7-12.6-11.9-14.3c-3.7-0.9-7.4-0.3-10.6-0.5c-3.3,0-6.1,0-8.9,0c-2.9,0-4.2,1.2-4.2,4
		c-0.1,11.8-0.1,23.6-0.1,35.5c0,2.5,1.5,4.1,4.1,4.1c6.2,0,12.4,0.4,18.5-0.3c7.5-0.9,12.9-6.7,13.1-14.3
		C353.3,861.7,353.3,856.9,353.2,852.1z M345.4,865.6c-0.1,4.8-2.6,7.6-7.5,7.8c-3.7,0.2-7.3,0-11,0.1c-1.3,0-1.4-0.5-1.4-1.6
		c0-4.3,0-8.6,0-12.8c0-4.2,0-8.4,0-12.6c0-1.3,0.3-1.8,1.7-1.8c3.5,0.1,6.9,0,10.4,0.1c5.1,0.2,7.8,3,7.9,8.1
		C345.4,857.1,345.4,861.4,345.4,865.6z"/>
	<path class="st5" d="M496.8,863.2c-0.1-1.4,0-2.7,0-4.1c0-1.8,0-3.7,0-5.5c0-4-1.5-7.4-4.2-10.3c-5.3-5.7-13.7-7.5-21.2-4.6
		c-7.1,2.7-11,8.3-11,15.9c0,3.5,0,6.9,0,10.4c0,2.8,0.8,5.4,2.2,7.7c4.1,6.6,12.7,9.7,20.7,7.8
		C491.2,878.5,497.4,871.9,496.8,863.2z M482.3,872.9c-4.1,1.4-7.9,0.7-11.2-2.2c-1.7-1.6-2.7-3.5-2.7-5.9c0-3.3,0.3-6.7-0.1-10
		c-0.7-6.6,6.2-11.2,12.5-9.8c5.2,1.2,7.8,4.5,7.8,9.9c0,1.4,0,2.9,0,4.3c0,1.5-0.1,3,0,4.5C489.1,868.9,485.9,871.7,482.3,872.9z"
		/>
	<path class="st5" d="M223.9,845.2c-4.1-6.1-12.2-9.1-19.7-7.5c-7.2,1.5-14.7,7.5-14,17.4c0.1,1.4,0,2.7,0,4.1c0,1.9,0,3.8,0,5.7
		c0,4.2,1.5,7.7,4.4,10.6c5.1,5.3,13.8,7,20.9,4.2c7-2.8,11-8.5,11-16c0-3.3,0-6.5,0-9.8C226.5,850.7,225.6,847.9,223.9,845.2z
		 M218.5,854.5c-0.1,1.6,0,3.1,0,4.7c0,1.8,0,3.7,0,5.5c0.1,2-0.7,3.7-1.9,5.2c-2.7,3.2-7.9,4.5-12.1,3c-4.2-1.5-6.4-4.7-6.4-9.4
		c0-2.8,0.2-5.6,0-8.3c-0.7-8,8-12.6,14.8-9.5C216.5,847.4,218.7,850.1,218.5,854.5z"/>
	<path class="st5" d="M434.9,853.2c-0.2-7.2-6.3-13.9-14.1-15.3c-5.2-1-10.6-0.3-15.9-0.4c-2.8-0.1-4.2,1.4-4.2,4.3
		c0,5.8,0,11.5,0,17.3c0,5.8,0,11.7,0,17.5c0,0.1,0,0.1,0,0.2c0,2.6,1.4,4,3.8,4c2.5,0,4-1.4,4.1-4c0-1.5,0.2-3,0-4.5
		c-0.2-2.1,0.6-2.5,2.5-2.4c4.3,0.1,8.7,0.2,12.9-1.4C430.7,866,435.1,859.6,434.9,853.2z M426.9,854.2c-0.2,4-4.2,7.8-8.8,8.1
		c-2.7,0.2-5.4,0-8.1,0.1c-1.2,0-1.3-0.6-1.3-1.5c0-2.5,0-5,0-7.5c0-2.3,0.1-4.6,0-6.9c0-1.2,0.2-1.7,1.6-1.7c3,0.2,6.1-0.3,9.1,0.4
		C423.9,846.2,427.2,850.1,426.9,854.2z"/>
	<path class="st6" d="M91.5,852.2c-2,9-4,17.6-5.8,26.2c-0.4,1.7-1.1,2.1-2.6,2c-1.2-0.1-2.4-0.1-3.6,0c-1.8,0.2-2.7-0.4-1.8-2.7
		c-3.7,2.2-7,3.6-10.9,3.1c-4.4-0.6-7-3.4-6.6-7.8c0.6-6.6,2.7-13,3.9-19.5c0.2-0.8,0.7-1.3,1.6-1.3c2.2,0,4.9-0.8,6.4,0.2
		c2.1,1.3-0.1,3.8-0.4,5.7c-0.6,3.8-1.6,7.5-2.3,11.2c-0.6,3,1.3,4.7,4.2,3.6c3.2-1.2,5.2-3.5,6-6.8c0.9-3.7,1.9-7.4,2.4-11.2
		c0.4-2.4,1.4-3.1,3.7-2.9C87.6,852.4,89.5,852.2,91.5,852.2z"/>
	<path class="st6" d="M37.8,841.8c-1.7-0.1-2.5,0.3-2.8,2.2c-0.6,3.5-1.5,7-2.4,10.8c-7.5-5.5-15.5-3.9-20.2,3.7
		c-2.1,3.4-3,7.2-2.9,11.2c0.2,9,7.1,13.5,15.6,10.2c0.7-0.3,1.8-0.8,2-0.6c2,2.3,4.5,0.7,6.7,1.1c1.5,0.3,2.1-0.6,2.4-1.9
		c2.6-12.1,5.3-24.2,8-36.6C41.9,841.9,39.8,842,37.8,841.8z M22.3,873.3c-3.4-0.1-5.2-2.2-5.1-5.7c0.1-5,3.9-9.4,7.9-9.2
		c3,0.1,5.5,2.8,5.4,5.9C30.2,869.2,26.4,873.4,22.3,873.3z"/>
</g>
</svg>
