<?xml version="1.0" encoding="utf-8"?>
<!-- Generator: Adobe Illustrator 22.0.0, SVG Export Plug-In . SVG Version: 6.00 Build 0)  -->
<svg version="1.1" id="Calque_1" xmlns="http://www.w3.org/2000/svg" xmlns:xlink="http://www.w3.org/1999/xlink" x="0px" y="0px"
	 viewBox="0 0 669 670.5" style="enable-background:new 0 0 669 670.5;" xml:space="preserve">
<style type="text/css">
	.st0{fill:#08B4A5;}
	.st1{fill:#8BC544;}
</style>
<g>
	<path class="st0" d="M400.7,245.5c0-40.8,0.1-81.6,0-122.3c-0.2-37.3-32.9-67.6-70-65.2c-34.6,2.3-61.8,30.7-62.2,65.4
		c-0.3,21.7-0.2,43.3,0,65c0,4.4-1.1,5.9-5.6,5.7c-12.3-0.3-24.6-0.2-37-0.1c-3.1,0-5.4-0.3-5.4-4.2c0.6-28.8-2.7-57.8,2-86.5
		c8.3-50.5,51.8-89.4,103-93c57.7-4.1,107.6,32.8,120.5,89c1.9,8.3,2.8,16.7,2.8,25.2c0.1,80.1,0,160.1,0,240.2c0,1.1-0.1,2.1,0,3.2
		c0.5,5.3-1.3,7.4-7.1,7.2c-11.4-0.5-22.9-0.4-34.4,0c-5.2,0.2-6.8-1.2-6.8-6.6C400.8,327.5,400.7,286.5,400.7,245.5z"/>
	<path class="st1" d="M240.9,221c41.6,0,83.2,0.1,124.9-0.1c4.8,0,6.1,1.2,5.9,5.9c-0.4,12.1-0.4,24.2,0,36.3
		c0.2,5.2-1.6,6.2-6.4,6.2c-80.3-0.1-160.5-0.1-240.8-0.1c-35.6,0-63.2,25-66.9,60.3c-3.7,35,23.8,68.6,58.8,71.2
		c23.1,1.7,46.3,0.6,69.4,0.5c5.9,0,7.6,1.6,7.3,7.4c-0.5,11.9-0.3,23.8-0.1,35.7c0.1,3.9-1.1,5.1-5,5.1
		c-22.9-0.2-45.9,0.4-68.8-0.2C55.3,447.4,6.8,393.7,9.5,328.5C12,269.4,62.6,221.3,123.1,221C162.4,220.8,201.6,221,240.9,221z"/>
	<path class="st0" d="M220.4,427.6c0-40.8,0.1-81.5-0.1-122.3c0-5.2,1.2-6.9,6.6-6.8c11.7,0.4,23.4,0.4,35,0
		c5.4-0.2,6.6,1.5,6.6,6.7c-0.2,66.9-0.2,133.8,0,200.7c0,17.2-1.4,34.4,1.1,51.5c4.7,31.4,33.4,55.4,65.9,55
		c32.3-0.4,60.6-24.7,64.2-56.1c2.7-22.8,0.7-45.8,0.9-68.7c0-6.1,1-8.5,7.8-8.1c11.6,0.7,23.4,0.3,35,0.1c4-0.1,5.6,0.8,5.5,5.2
		c-0.5,23.8,0.6,47.6-0.7,71.3c-2.7,48.3-42.8,93.4-90.5,102.1c-39.5,7.2-74.2-2.6-103.1-30.4c-22.2-21.4-33.8-48.2-34.1-79.1
		C220,508.3,220.4,468,220.4,427.6z"/>
	<path class="st1" d="M428.7,449.3c-41.6,0-83.3-0.1-124.9,0.1c-4.9,0-6.5-1.2-6.3-6.3c0.4-11.9,0.4-23.8,0-35.7
		c-0.2-5.2,1.6-6.2,6.4-6.2c80.1,0.1,160.1,0.1,240.2,0.1c33.3,0,59.7-21.5,66.5-53.7c8-38.1-21.6-76.8-60.6-78.2
		c-22.5-0.8-45-0.4-67.5-0.1c-5,0.1-6.5-1.2-6.4-6.3c0.4-12.5,0.1-25.1,0.1-37.6c0-2.5-0.1-4.6,3.5-4.5c26.9,0.7,54-1.7,80.8,1.3
		c49.5,5.4,91.1,46.5,97.8,95.6c8.4,61.9-29.5,116.3-90.4,129.3c-7.7,1.7-15.5,2.2-23.4,2.2C506,449.3,467.4,449.3,428.7,449.3z"/>
	<path class="st1" d="M524.5,177c-34-4.9-56.2,10.7-63.6,44.7c-0.3,1.5-0.3,3.4-2.1,3.4c-2.6,0-2.1-2.3-1.9-3.8
		c1.4-13.1,6.4-25,12.7-36.3c7.8-14,17.2-26.9,31.6-34.9c16-9,32.9-6.5,49.5-2.6c16.1,3.8,31.9,8.8,48.8,7.3c4.2-0.4,4.3,2,2.3,4.7
		c-8.5,11.8-15.8,24.7-26.7,34.7c-16.6,15.2-35.8,21.2-58.1,16.6c-11.8-2.4-23.4-5.8-35.6-6.3c-5.6-0.2-4.3-3.8-2.6-6.6
		c4.4-7,11.1-11.6,18.4-15.1C505.9,178.6,515.3,178.4,524.5,177z"/>
	<path class="st1" d="M514.4,130c2.9,3.3,5.8,6.5,9.3,10.4c-10.1,0.9-19.1,3.1-26.9,8.4c-2.9,2-4.7,0.2-6.6-1.5
		c-8.3-7.7-11.8-17.9-13.9-28.6c-2.6-13,0.4-25.8,1.3-38.6c0.3-3.4,2.1-4.1,4.5-1.4c8.7,9.8,20.6,14.7,31.9,20.3
		c17.3,8.6,30.5,21.2,37.5,39.6c1.6,4.2,1.9,6.5-3.8,4.8c-2.8-0.8-5.8-1.1-8.8-1.3c-6.2-0.5-11.9-1.5-16-7.3
		C521.1,132.1,518.1,130.2,514.4,130z"/>
</g>
</svg>
